<svg xmlns="http://www.w3.org/2000/svg" xmlns:xlink="http://www.w3.org/1999/xlink" width="500" zoomAndPan="magnify" viewBox="0 0 375 374.999991" height="500" preserveAspectRatio="xMidYMid meet" version="1.0"><defs><g/><clipPath id="1a92e4992b"><path d="M 89.914062 210.816406 L 182.804688 210.816406 L 182.804688 221.148438 L 89.914062 221.148438 Z M 89.914062 210.816406 " clip-rule="nonzero"/></clipPath><clipPath id="3a6d1e8860"><path d="M 194.894531 152.109375 L 287.789062 152.109375 L 287.789062 162.4375 L 194.894531 162.4375 Z M 194.894531 152.109375 " clip-rule="nonzero"/></clipPath></defs><g clip-path="url(#1a92e4992b)"><path fill="#d9d9d9" d="M 89.914062 210.816406 L 182.800781 210.816406 L 182.800781 221.148438 L 89.914062 221.148438 Z M 89.914062 210.816406 " fill-opacity="1" fill-rule="nonzero"/></g><g clip-path="url(#3a6d1e8860)"><path fill="#d9d9d9" d="M 194.894531 152.109375 L 287.785156 152.109375 L 287.785156 162.4375 L 194.894531 162.4375 Z M 194.894531 152.109375 " fill-opacity="1" fill-rule="nonzero"/></g><g fill="#004080" fill-opacity="1"><g transform="translate(103.058083, 192.370037)"><g><path d="M 5.03125 0 L 5.03125 -41.984375 L 14.578125 -41.984375 L 14.578125 -8.9375 L 32.9375 -8.9375 L 32.9375 0 Z M 5.03125 0 "/></g></g></g><g fill="#004080" fill-opacity="1"><g transform="translate(150.027845, 192.370037)"><g><path d="M 5.03125 0 L 5.03125 -41.984375 L 14.578125 -41.984375 L 14.578125 0 Z M 5.03125 0 "/></g></g></g><g fill="#5dade2" fill-opacity="1"><g transform="translate(193.826404, 220.874386)"><g><path d="M 24.296875 0.84375 C 20.054688 0.84375 16.296875 -0.0820312 13.015625 -1.9375 C 9.734375 -3.800781 7.171875 -6.375 5.328125 -9.65625 C 3.492188 -12.9375 2.578125 -16.71875 2.578125 -21 C 2.578125 -25.269531 3.492188 -29.046875 5.328125 -32.328125 C 7.171875 -35.609375 9.722656 -38.175781 12.984375 -40.03125 C 16.242188 -41.894531 19.992188 -42.828125 24.234375 -42.828125 C 27.796875 -42.828125 31.054688 -42.144531 34.015625 -40.78125 C 36.972656 -39.425781 39.460938 -37.507812 41.484375 -35.03125 C 43.503906 -32.550781 44.910156 -29.628906 45.703125 -26.265625 L 35.875 -26.265625 C 35.070312 -28.585938 33.648438 -30.414062 31.609375 -31.75 C 29.566406 -33.09375 27.207031 -33.765625 24.53125 -33.765625 C 22.175781 -33.765625 20.066406 -33.222656 18.203125 -32.140625 C 16.347656 -31.066406 14.898438 -29.570312 13.859375 -27.65625 C 12.816406 -25.738281 12.296875 -23.519531 12.296875 -21 C 12.296875 -18.476562 12.816406 -16.253906 13.859375 -14.328125 C 14.898438 -12.410156 16.335938 -10.910156 18.171875 -9.828125 C 20.015625 -8.753906 22.113281 -8.21875 24.46875 -8.21875 C 27.226562 -8.21875 29.644531 -8.925781 31.71875 -10.34375 C 33.800781 -11.769531 35.285156 -13.679688 36.171875 -16.078125 L 46.015625 -16.078125 C 45.328125 -12.679688 43.960938 -9.710938 41.921875 -7.171875 C 39.890625 -4.628906 37.363281 -2.65625 34.34375 -1.25 C 31.320312 0.144531 27.972656 0.84375 24.296875 0.84375 Z M 24.296875 0.84375 "/></g></g></g><g fill="#5dade2" fill-opacity="1"><g transform="translate(254.652778, 220.874386)"><g><path d="M 0.546875 0 L 17.21875 -41.984375 L 26.578125 -41.984375 L 43.25 0 L 33.046875 0 L 30.234375 -7.265625 L 13.5625 -7.265625 L 10.734375 0 Z M 16.015625 -14.75 L 27.828125 -14.75 L 21.890625 -30.109375 Z M 16.015625 -14.75 "/></g></g></g></svg>