<svg xmlns="http://www.w3.org/2000/svg" xmlns:xlink="http://www.w3.org/1999/xlink" width="500" zoomAndPan="magnify" viewBox="0 0 375 374.999991" height="500" preserveAspectRatio="xMidYMid meet" version="1.0"><defs><g/><clipPath id="fa5b183d10"><path d="M 89.914062 210.816406 L 182.804688 210.816406 L 182.804688 221.148438 L 89.914062 221.148438 Z M 89.914062 210.816406 " clip-rule="nonzero"/></clipPath><clipPath id="0e7ddd90f2"><path d="M 200.449219 148.359375 L 293.339844 148.359375 L 293.339844 158.691406 L 200.449219 158.691406 Z M 200.449219 148.359375 " clip-rule="nonzero"/></clipPath></defs><g clip-path="url(#fa5b183d10)"><path fill="#ffffff" d="M 89.914062 210.816406 L 182.800781 210.816406 L 182.800781 221.148438 L 89.914062 221.148438 Z M 89.914062 210.816406 " fill-opacity="1" fill-rule="nonzero"/></g><g fill="#004080" fill-opacity="1"><g transform="translate(98.83362, 192.06737)"><g><path d="M 3 0 L 3 -41.984375 L 19.015625 -41.984375 L 19.015625 -13.078125 L 37.4375 -13.078125 L 37.4375 0 Z M 3 0 "/></g></g></g><g fill="#004080" fill-opacity="1"><g transform="translate(151.67599, 192.06737)"><g><path d="M 3 0 L 3 -41.984375 L 19.1875 -41.984375 L 19.1875 0 Z M 3 0 "/></g></g></g><g fill="#5dade2" fill-opacity="1"><g transform="translate(191.233938, 214.9419)"><g><path d="M 27.40625 0.90625 C 20.050781 0.90625 14.132812 -1.09375 9.65625 -5.09375 C 5.21875 -9.132812 3 -14.4375 3 -21 C 3 -27.59375 5.21875 -32.890625 9.65625 -36.890625 C 14.132812 -40.890625 20.050781 -42.890625 27.40625 -42.890625 C 33.164062 -42.890625 38.488281 -41.191406 43.375 -37.796875 L 36.65625 -26.09375 C 33.726562 -28.289062 30.75 -29.390625 27.71875 -29.390625 C 25.195312 -29.390625 23.132812 -28.628906 21.53125 -27.109375 C 20.007812 -25.585938 19.25 -23.566406 19.25 -21.046875 C 19.25 -18.492188 20.007812 -16.457031 21.53125 -14.9375 C 23.09375 -13.375 25.15625 -12.59375 27.71875 -12.59375 C 30.75 -12.59375 33.726562 -13.691406 36.65625 -15.890625 L 43.375 -4.203125 C 38.488281 -0.796875 33.164062 0.90625 27.40625 0.90625 Z M 27.40625 0.90625 "/></g></g></g><g fill="#5dade2" fill-opacity="1"><g transform="translate(248.814459, 214.9419)"><g><path d="M 1.203125 0 L 17.578125 -41.984375 L 36.171875 -41.984375 L 52.546875 0 L 35.578125 0 L 33.953125 -5.03125 L 19.5625 -5.03125 L 17.875 0 Z M 22.96875 -15.234375 L 30.65625 -15.234375 L 26.9375 -26.6875 L 26.8125 -26.6875 Z M 22.96875 -15.234375 "/></g></g></g><g clip-path="url(#0e7ddd90f2)"><path fill="#ffffff" d="M 200.449219 148.359375 L 293.335938 148.359375 L 293.335938 158.691406 L 200.449219 158.691406 Z M 200.449219 148.359375 " fill-opacity="1" fill-rule="nonzero"/></g></svg>